<?xml version="1.0" encoding="utf-8"?>
<!-- Generator: Adobe Illustrator 17.0.0, SVG Export Plug-In . SVG Version: 6.00 Build 0)  -->
<!DOCTYPE svg PUBLIC "-//W3C//DTD SVG 1.1//EN" "http://www.w3.org/Graphics/SVG/1.1/DTD/svg11.dtd">
<svg version="1.1" id="Layer_1" xmlns="http://www.w3.org/2000/svg" xmlns:xlink="http://www.w3.org/1999/xlink" x="0px" y="0px"
	 width="24px" height="19px" viewBox="0 0 24 19" enable-background="new 0 0 24 19" xml:space="preserve">
<path fill="#101010" d="M16.76,4.13c-0.19-0.24-0.48-0.39-0.79-0.4c-0.31-0.02-0.6,0.1-0.82,0.32L15,4.19
	c-0.39,0.39-0.42,1.02-0.07,1.45c0.92,1.14,1.41,2.52,1.41,3.98c0,1.37-0.43,2.67-1.24,3.76c-0.33,0.43-0.28,1.04,0.1,1.42
	l0.15,0.14c0.2,0.21,0.48,0.32,0.77,0.32h0.08c0.31-0.02,0.6-0.18,0.79-0.43c1.14-1.52,1.74-3.32,1.74-5.21
	C18.73,7.59,18.05,5.69,16.76,4.13z M11.38,1.3C11,1.13,10.55,1.18,10.22,1.45L4.26,6.37H1.09C0.49,6.37,0,6.86,0,7.46v4.33
	c0,0.59,0.49,1.08,1.09,1.08h3.17l5.96,4.92c0.2,0.17,0.45,0.25,0.7,0.25c0.15,0,0.31-0.03,0.46-0.1c0.38-0.18,0.63-0.56,0.63-0.98
	V2.29C12.01,1.87,11.76,1.48,11.38,1.3z"/>
</svg>
