<svg width="24" height="19" viewBox="0 0 24 19" fill="none" xmlns="http://www.w3.org/2000/svg">
    <path
        d="M12.0072 16.9553C12.0072 17.3766 11.7629 17.7594 11.3806 17.9381C11.2328 18.0077 11.0744 18.0414 10.9171 18.0414C10.6679 18.0414 10.421 17.956 10.2216 17.7913L4.26329 12.871H1.08988C0.488059 12.8715 0 12.3849 0 11.7851V7.45789C0 6.85789 0.488059 6.37152 1.08988 6.37152H4.26355L10.2219 1.45123C10.5474 1.18234 10.9989 1.12501 11.3809 1.30496C11.7629 1.48362 12.0075 1.86665 12.0075 2.28773L12.0072 16.9553ZM16.1957 15.2581C16.1691 15.2599 16.1436 15.2609 16.1173 15.2609C15.8294 15.2609 15.5518 15.1476 15.3468 14.9429L15.201 14.7972C14.8187 14.417 14.7738 13.8147 15.0958 13.3823C15.9119 12.2856 16.3427 10.9856 16.3427 9.62189C16.3427 8.15506 15.8537 6.77923 14.9281 5.64299C14.5757 5.21111 14.6082 4.58387 15.0032 4.19055L15.1486 4.04531C15.3664 3.82834 15.6581 3.71009 15.9739 3.72886C16.2813 3.74428 16.5685 3.8885 16.7635 4.12603C18.0473 5.69157 18.7255 7.59234 18.7255 9.62215C18.7255 11.5126 18.1258 13.3121 16.9907 14.8252C16.8011 15.0774 16.5112 15.2357 16.1957 15.2581ZM20.7017 18.6147C20.5047 18.8468 20.2196 18.9861 19.9144 18.999C19.8995 18.9995 19.8843 19 19.8688 19C19.5801 19 19.3031 18.8864 19.098 18.682L18.9548 18.5393C18.5547 18.1409 18.5277 17.5036 18.8914 17.0722C20.6491 14.989 21.6175 12.3432 21.6175 9.62189C21.6175 6.79131 20.5807 4.06639 18.6989 1.94917C18.3174 1.51935 18.3368 0.868715 18.7428 0.462547L18.8857 0.319874C19.0977 0.107536 19.3732 -0.00943008 19.6892 0.000595585C19.9893 0.00907884 20.273 0.141212 20.4724 0.364861C22.7471 2.91704 24 6.20494 24 9.62189C24.0005 12.9095 22.8291 16.1034 20.7017 18.6147Z"
        fill="#101010"/>
</svg>
